<?xml version="1.0" encoding="iso-8859-1"?>
<!-- Uploaded to: SVG Repo, www.svgrepo.com, Generator: SVG Repo Mixer Tools -->
<!DOCTYPE svg PUBLIC "-//W3C//DTD SVG 1.1//EN" "http://www.w3.org/Graphics/SVG/1.1/DTD/svg11.dtd">
<svg fill="#000000" version="1.1" id="Capa_1" xmlns="http://www.w3.org/2000/svg" xmlns:xlink="http://www.w3.org/1999/xlink" 
	 width="800px" height="800px" viewBox="0 0 60.5 60.5" xml:space="preserve">
<g>
	<g>
		<path d="M0,1.5V59c0,0.828,0.671,1.5,1.5,1.5H59c0.828,0,1.5-0.672,1.5-1.5V1.5C60.5,0.672,59.828,0,59,0H1.5
			C0.672,0,0,0.672,0,1.5z M11.16,57.5c0.767-9.271,8.542-16.582,18.006-16.582c9.465,0,17.242,7.312,18.008,16.582H11.16z M3,3
			h54.5v54.5h-7.326C49.4,46.576,40.285,37.918,29.166,37.918S8.935,46.576,8.16,57.5H3.001L3,3L3,3z"/>
		<path d="M29.166,34.584c10.625,0,21.918-3.305,21.918-9.424c0-2.576-2.157-4.9-6.053-6.612c-1.391-3.737-7.807-6.369-15.863-6.369
			c-8.022,0-14.416,2.609-15.852,6.362c-3.904,1.711-6.066,4.04-6.066,6.618C7.25,31.281,18.542,34.584,29.166,34.584z
			 M29.166,15.18c7.297,0,12.775,2.473,13.145,4.755c0.008,0.054,0.021,0.105,0.023,0.151c0,2.05-5.01,4.907-13.168,4.907
			c-8.157,0-13.167-2.857-13.167-4.898c0.003-0.055,0.015-0.106,0.033-0.224C16.39,17.652,21.871,15.18,29.166,15.18z
			 M13.361,21.829c0.091,0.212,0.2,0.419,0.322,0.623c0.008,0.014,0.014,0.028,0.021,0.041c0.143,0.234,0.31,0.462,0.493,0.687
			c0.062,0.075,0.135,0.147,0.2,0.222c0.132,0.146,0.267,0.292,0.414,0.433c0.088,0.084,0.185,0.165,0.278,0.246
			c0.145,0.127,0.295,0.252,0.454,0.373c0.106,0.082,0.217,0.162,0.33,0.241c0.166,0.117,0.339,0.231,0.518,0.343
			c0.12,0.075,0.239,0.15,0.365,0.223c0.194,0.111,0.398,0.22,0.604,0.326c0.124,0.064,0.245,0.13,0.374,0.191
			c0.25,0.12,0.513,0.233,0.779,0.345c0.1,0.041,0.192,0.086,0.292,0.126c0.371,0.147,0.756,0.287,1.155,0.417
			c0.103,0.034,0.212,0.063,0.317,0.096c0.305,0.095,0.612,0.186,0.932,0.271c0.157,0.042,0.32,0.078,0.479,0.117
			c0.279,0.068,0.562,0.134,0.851,0.194c0.18,0.036,0.363,0.071,0.546,0.105c0.284,0.053,0.57,0.104,0.863,0.148
			c0.19,0.03,0.383,0.058,0.576,0.085c0.303,0.041,0.608,0.077,0.918,0.109c0.192,0.021,0.384,0.043,0.578,0.061
			c0.343,0.029,0.69,0.053,1.041,0.072c0.169,0.011,0.335,0.022,0.506,0.031c0.525,0.022,1.057,0.037,1.598,0.037
			s1.074-0.015,1.601-0.037c0.17-0.009,0.335-0.021,0.505-0.031c0.353-0.021,0.697-0.043,1.039-0.072
			c0.195-0.018,0.39-0.039,0.578-0.061c0.312-0.032,0.614-0.068,0.918-0.109c0.192-0.027,0.387-0.055,0.577-0.085
			c0.292-0.046,0.578-0.096,0.861-0.148c0.185-0.034,0.364-0.069,0.545-0.105c0.289-0.061,0.571-0.126,0.853-0.194
			c0.16-0.039,0.322-0.076,0.479-0.117c0.317-0.084,0.627-0.176,0.935-0.271c0.104-0.033,0.215-0.063,0.315-0.096
			c0.397-0.13,0.782-0.27,1.153-0.417c0.103-0.04,0.193-0.085,0.291-0.126c0.269-0.11,0.529-0.225,0.779-0.345
			c0.129-0.063,0.25-0.128,0.373-0.192c0.207-0.105,0.409-0.214,0.604-0.325c0.125-0.073,0.245-0.148,0.364-0.224
			c0.181-0.112,0.353-0.226,0.519-0.343c0.11-0.079,0.224-0.159,0.33-0.241c0.157-0.122,0.308-0.247,0.452-0.373
			c0.095-0.082,0.189-0.163,0.277-0.246c0.146-0.141,0.282-0.287,0.414-0.433c0.065-0.074,0.141-0.146,0.2-0.222
			c0.185-0.224,0.353-0.451,0.492-0.687c0.009-0.014,0.015-0.028,0.021-0.041c0.121-0.204,0.229-0.411,0.321-0.623
			c1.979,1.051,3.109,2.244,3.109,3.332c0,2.683-7.194,6.424-18.916,6.424c-11.722,0-18.916-3.741-18.916-6.424
			C10.25,24.073,11.385,22.879,13.361,21.829z"/>
		<path d="M28.933,18.215l8.438,1.334c0.08,0.014,0.156,0.02,0.234,0.02c0.727,0,1.362-0.527,1.479-1.266
			c0.129-0.818-0.428-1.588-1.246-1.717l-8.439-1.334c-0.818-0.135-1.587,0.43-1.716,1.247
			C27.556,17.318,28.115,18.086,28.933,18.215z"/>
		<circle cx="29.166" cy="29.609" r="1.083"/>
		<circle cx="13.417" cy="26.244" r="1.083"/>
		<circle cx="44.916" cy="26.244" r="1.083"/>
		<path d="M40.875,11.792c1.783,0,3.309-1.106,3.938-2.668c0.631,1.562,2.154,2.668,3.938,2.668c2.345,0,4.25-1.905,4.25-4.25
			c0-2.344-1.905-4.25-4.25-4.25c-1.78,0-3.308,1.107-3.938,2.668c-0.629-1.561-2.152-2.668-3.938-2.668
			c-2.344,0-4.25,1.906-4.25,4.25C36.625,9.887,38.531,11.792,40.875,11.792z M48.75,6.292c0.688,0,1.25,0.562,1.25,1.25
			c0,0.689-0.562,1.25-1.25,1.25c-0.689,0-1.25-0.561-1.25-1.25C47.5,6.854,48.061,6.292,48.75,6.292z M40.875,6.292
			c0.688,0,1.25,0.562,1.25,1.25c0,0.689-0.562,1.25-1.25,1.25c-0.689,0-1.25-0.561-1.25-1.25
			C39.625,6.854,40.186,6.292,40.875,6.292z"/>
	</g>
</g>
</svg>